<svg xmlns="http://www.w3.org/2000/svg" width="758.134" height="154" viewBox="0 0 758.134 154">
  <g id="Screenshot_2" transform="translate(-8 164)">
    <path id="Caminho_1" data-name="Caminho 1" d="M199.7-162.3c-.4.3-.7,34.5-.7,76V-11h30V-38.2l-5.8-7.7c-18.4-24.4-17.4-55.5,2.5-79.3l3.3-4V-163H214.7C206.8-163,200-162.7,199.7-162.3Z" fill="#51beca" stroke="#fff" stroke-width="2"/>
    <path id="Caminho_2" data-name="Caminho 2" d="M271-144.4a72.679,72.679,0,0,0-14.9,5.5c-36.9,18.2-44.5,70.8-14.6,100.4,12.7,12.5,28.5,18.2,48,17.2,12.7-.6,20.8-2.9,29.3-8.3,6.2-4,16.2-13.1,16.2-14.8,0-1.4-20.1-21.6-21.6-21.6-.6,0-3.1,1.5-5.5,3.4-9.5,7.2-19.2,10-27.4,7.7-7.9-2.1-13-6.3-16.6-13.7-3-6.1-3.4-7.7-3.3-14.9,0-10.4,2.7-16.8,9.6-23,5.8-5.2,11.1-7,18.6-6.1,6.3.7,10.9,3,17.6,8.5,2.6,2.3,5.2,4.1,5.6,4.1s5.9-5.5,12.1-12.2l11.3-12.1-6.3-5.9c-11.2-10.5-25.9-15.9-43.3-15.7A82.251,82.251,0,0,0,271-144.4Z" fill="#51beca" stroke="#fff" stroke-width="2"/>
    <path id="Caminho_3" data-name="Caminho 3" d="M152.8-135c-1.7,1-1.8,5.1-1.8,62.5V-11h30.1l-.3-61.4c-.2-33.8-.7-61.8-1.1-62.3C178.4-136,154.8-136.2,152.8-135Z" fill="#51beca" stroke="#fff" stroke-width="2"/>
    <path id="Caminho_4" data-name="Caminho 4" d="M402.7-134.3c-.4.3-.7,18.1-.7,39.4,0,44.8-1.1,40.9,11.1,40.9,5.2,0,7.7-.4,9-1.6,1.6-1.4,2-1.4,4.9.1,5,2.6,11.9,3,18.6,1,7.7-2.2,15.2-9.6,18-17.6,4.2-12.4,1.2-27.8-7.1-36.3-7.1-7.4-20.5-9.8-29.4-5.3a39.981,39.981,0,0,1-3.8,1.7c-.1,0-.3-5.2-.3-11.5V-135h-9.8C407.8-135,403-134.7,402.7-134.3Zm35.2,37.4c5.9,2.1,9,12.3,5.6,18.9-2.1,4.2-5.3,6-10.3,6-3.6,0-4.9-.6-7.2-3a13.81,13.81,0,0,1-2.9-13.8C425.6-96.7,430.6-99.4,437.9-96.9Z" fill="#51beca" stroke="#fff" stroke-width="2"/>
    <path id="Caminho_5" data-name="Caminho 5" d="M583.7-131.3c-.4.3-.7,17.6-.7,38.4v37.7l2.3.6c4.3,1.1,16.4.7,17.6-.7.6-.9,1.2-8.4,1.3-20.3l.3-18.9L620-74.3l15.5,20.2,7.6.1c4.5,0,8-.5,8.7-1.2,1.4-1.4,1.7-73.4.4-75.6-.6-.9-3.4-1.2-10.3-1l-9.4.3-.3,19.3L632-92.9l-4.3-5.3c-2.4-2.9-9.2-11.7-15.2-19.6L601.7-132H593C588.2-132,584-131.7,583.7-131.3Z" fill="#707070" stroke="#fff" stroke-width="2"/>
    <path id="Caminho_6" data-name="Caminho 6" d="M731.6-127.4a32.425,32.425,0,0,0-.6,6.9c0,5.1-.1,5.4-2.7,5.7-2.2.2-2.9,1-3.5,3.8a27.337,27.337,0,0,0-.2,8.7c.5,4.7.8,5.2,3.2,5.5l2.7.3.6,15.5c.3,8.5,1,16.6,1.6,18,3.9,9.1,16.1,12.2,28.6,7.3l3.7-1.5v-7.2c0-9.5-.5-10.2-6.5-8.7-2.8.7-5.2.8-5.7.3s-.7-6-.6-12.3l.3-11.4,6.3-.3,6.3-.3-.3-8.7-.3-8.7-6.2-.3-6.3-.3V-129h-9.9C734-129,732.1-128.7,731.6-127.4Z" fill="#707070" stroke="#fff" stroke-width="2"/>
    <path id="Caminho_7" data-name="Caminho 7" d="M490.7-114.6c-13.5,5-21.7,18.3-20.4,33,1,11.6,6.6,19.9,17,25.3,4.5,2.4,6.4,2.7,14.2,2.7,10.7.1,17-2.2,22.9-8.3l3.8-3.9-5.1-4.7c-2.8-2.6-5.1-5.2-5.1-5.6,0-.5,2.5-.9,5.5-.9,5,0,5.5-.2,6.1-2.6.9-3.6-.3-12.6-2.5-18.3-4.3-11.4-12.5-17.2-25.1-17.8C497.2-115.9,493.1-115.5,490.7-114.6Zm16.1,18.9c1.2,1.1,2.2,2.4,2.2,2.9,0,.4-4.2.8-9.2.8l-9.3-.1,3.8-3.5c3.3-3,4.3-3.4,7-2.9A13.685,13.685,0,0,1,506.8-95.7Zm5.7,19.6c3.5,1.4-3.9,5.1-10.1,5.1-5,0-10.4-2.6-10.4-5.1C492-77.2,509.7-77.2,512.5-76.1Z" fill="#51beca" stroke="#fff" stroke-width="2"/>
    <path id="Caminho_8" data-name="Caminho 8" d="M562.8-113.6c-4.5,2.4-4.7,2.4-5.3.5-.6-1.7-1.6-1.9-9.4-1.9-5.4,0-9.1.4-9.9,1.2-.9.9-1.2,8.8-1.2,29.5,0,26.9.1,28.3,1.9,29.3,2.8,1.5,16.6,1.3,17.9-.2.5-.7,1.2-7.6,1.4-15.3.5-18.8,2.5-22.3,13.7-24.1l4.2-.7-.3-10.1-.3-10.1-4-.3A15.644,15.644,0,0,0,562.8-113.6Z" fill="#51beca" stroke="#fff" stroke-width="2"/>
    <path id="Caminho_9" data-name="Caminho 9" d="M683.5-115.1c-8.4,2.2-17.1,10.5-20.1,19.2-2.5,7.3-2.4,17.9.4,24.1,2.8,6.5,9.3,13.2,15.5,15.9,4.2,2,6.8,2.4,14.2,2.3,7.7,0,9.7-.4,14-2.6,4.8-2.5,11.5-8.2,11.5-9.8,0-.4-2-2.6-4.5-4.9s-4.3-4.7-4-5.2c.4-.5,2.8-.9,5.6-.9H721v-6.8c0-18.9-10.6-31.1-27.4-31.8C689.7-115.8,685.2-115.6,683.5-115.1Zm15,20.1,2.9,3H681.6l2.9-3c2.3-2.4,3.7-3,7-3S696.2-97.4,698.5-95Zm6,19c1.2,1.9-5.8,5-11.1,5-5,0-10.4-2.6-10.4-5.1C683-77.3,703.7-77.3,704.5-76Z" fill="#707070" stroke="#fff" stroke-width="2.1"/>
    <path id="Caminho_10" data-name="Caminho 10" d="M334.4-113.6c-.3.8,4.4,14.1,10.4,29.6l11,28.2-3.6-.4a26.542,26.542,0,0,1-5.3-1.2c-1.3-.6-2.5.9-5.5,6.9-3.8,7.5-3.9,7.6-1.9,9.1,3.6,2.6,12.5,4.7,17.8,4.1,11.1-1.4,14-5.5,25.5-36.4,14.6-39.3,14.6-39.4,13.1-40.4-2.2-1.4-18.5-1.1-19.7.3-.5.7-2.9,7.5-5.3,15-2.3,7.6-4.6,13.8-5,13.8-.3,0-2.8-6.2-5.4-13.7-2.5-7.6-5.1-14.3-5.7-15C353.2-115.6,335.1-115.5,334.4-113.6Z" fill="#51beca" stroke="#fff" stroke-width="2"/>
    <path id="Caminho_11" data-name="Caminho 11" d="M103-61v50h29l-.2-49.7-.3-49.8-14.2-.3-14.3-.3Z" fill="#51beca" stroke="#fff" stroke-width="2"/>
    <path id="Caminho_12" data-name="Caminho 12" d="M59.3-92.3l-4.3.4V-11H84V-50.9c0-22-.4-40.2-.9-40.5C81.9-92.2,64.2-92.9,59.3-92.3Z" fill="#51beca" stroke="#fff" stroke-width="2"/>
    <path id="Caminho_13" data-name="Caminho 13" d="M9-43.5V-11H36V-41.9c0-17-.3-31.6-.6-32.5-.5-1.3-2.7-1.6-13.5-1.6H9Z" fill="#51beca" stroke="#fff" stroke-width="2"/>
  </g>
</svg>
